#!OML:ASF E:/inclinewalkrobotboard/Project1/Captureday1/Session1/subject1.ASF
:FULLY-SPECIFIED
:DEGREES
63
root 0 0 0 1.0576207713955759 -3.6710037463227545 1.8639645941971217
lowerback 11.924946205066522 0.8579630802751418 -0.060263129400592474
upperback -4.227224987770936 1.0876278920562379 -0.5582556338396323
thorax -11.301494262136478 0.4966316410942509 -0.8012333067986519
lowerneck -5.683245648122316 1.4484134678086151 4.56383311309184
upperneck 18.09081723601646 2.884835609893254 -8.312291895649244
head 6.594345387066783 1.0486167362155614 -3.2190701225122957
rclavicle -9.354928944007903E-16 -3.39860504476312E-16
rhumerus 20.15365413274636 14.701960863269257 -48.14236286239314
rradius 72.54067162443164
rwrist 26.739528071083093
rhand -34.76833958406632 -57.41103754201997
rfingers 7.125020000000038
rthumb -7.929160807501552 -87.32596142285628
lclavicle 8.574675277401089E-16 -1.7503259370520707E-15
lhumerus 20.844968104612686 -12.740531267478847 45.29172668928651
lradius 69.93861895886997
lwrist -22.27463269493752
lhand -44.77987117231756 -69.75628956888136
lfingers 7.1250200000000286
lthumb -17.571157223936503 -40.55860924037747
rfemur -24.89409918325873 -2.212361496699148 17.20838557241013
rtibia 54.049114238395056
rfoot -29.07863915352799 -16.733385431627784
rtoes -17.6708440352215
lfemur -26.688387721172415 2.4058703136334003 -18.29533476873084
ltibia 54.17547069278082
lfoot -31.059828923250365 -3.5320530086554816
ltoes -19.61264662271336
64
root 0 0 0 1.0567083249752676 -3.6726665402004457 1.8637587919587522
lowerback 11.924937534900288 0.8578022077497504 -0.05985789089924495
upperback -4.226625729152178 1.0874913949137315 -0.5579114350996749
thorax -11.300795350081254 0.4965592798298544 -0.8010470476592766
lowerneck -5.679915561656047 1.447920583043382 4.564202636845904
upperneck 18.088728754433106 2.884293320630207 -8.313676305874141
head 6.593106820624933 1.0483969635050123 -3.219618863103863
rclavicle -9.289347312514304E-16 -3.4161779505305535E-16
rhumerus 20.15491507138036 14.70347234655308 -48.141981704892935
rradius 72.54151419250157
rwrist 26.73903660707016
rhand -34.76614597457141 -57.40785024264541
rfingers 7.125020000000038
rthumb -7.927048744130625 -87.32271924702796
lclavicle 8.6501347873377135E-16 -1.7513088691934105E-15
lhumerus 20.84616973579175 -12.742648166644615 45.289884928407226
lradius 69.9400195702143
lwrist -22.274741889096834
lhand -44.77895596015863 -69.75052197745894
lfingers 7.1250200000000286
lthumb -17.57026190749161 -40.55275083895694
rfemur -24.894252016041705 -2.212375242154986 17.20833282757484
rtibia 54.04902650272333
rfoot -29.078903451215105 -16.73342316208558
rtoes -17.67116665479485
lfemur -26.68689174406773 2.4058388313234227 -18.295258679579682
ltibia 54.17260055959485
lfoot -31.060938722178545 -3.53061448544844
ltoes -19.616354127194846
65
root 0 0 0 1.0564332608653855 -3.6731396897442457 1.8637106884403425
lowerback 11.924970986982178 0.8577549198644648 -0.05967107946050251
upperback -4.226403649756474 1.087456365829933 -0.557797317926386
thorax -11.300547836549395 0.49653990387453006 -0.8010172371477094
lowerneck -5.678616081606713 1.4476934510867334 4.564349196854215
upperneck 18.087863904970433 2.8840153090638774 -8.314222063950977
head 6.592606261314625 1.0482853527282339 -3.2198426163489335
rclavicle -9.310031272628059E-16 -3.331324546990194E-16
rhumerus 20.156866612660593 14.704860989265743 -48.14113944116889
rradius 72.54277031449246
rwrist 26.739037175733237
rhand -34.76417435556563 -57.40514115812479
rfingers 7.125020000000038
rthumb -7.925205718657324 -87.3193115209856
lclavicle 8.67229479433245E-16 -1.744418952896204E-15
lhumerus 20.847865542476924 -12.745369203959427 45.28821405205393
lradius 69.94183326819119
lwrist -22.274424690115858
lhand -44.778257633929115 -69.74460829098503
lfingers 7.1250200000000286
lthumb -17.569651153192275 -40.546816086626734
rfemur -24.89359108119725 -2.211841495123933 17.207386475080362
rtibia 54.04915329974679
rfoot -29.078456107351663 -16.734303347615917
rtoes -17.672091573058278
lfemur -26.685459536243744 2.406028585911601 -18.295176619825337
ltibia 54.167500270166116
lfoot -31.063437496426644 -3.527180205506946
ltoes -19.6218798595542
66
root 0 0 0 1.055455970779203 -3.6749594755077255 1.8634949916702241
lowerback 11.92486494088413 0.8575859308459657 -0.059343653486999354
upperback -4.225837350773714 1.0873038400293409 -0.5574602802536677
thorax -11.299845542813292 0.49646121634298057 -0.8007882566262996
lowerneck -5.675581664694409 1.4473234990858594 4.5647540284559796
upperneck 18.086090279780304 2.883669020368968 -8.315552493459185
head 6.591521031249627 1.0481424143451583 -3.220362382068387
rclavicle -9.164613358952978E-16 -3.425961410179734E-16
rhumerus 20.156936502510696 14.705930489122192 -48.141296999127974
rradius 72.54287651485245
rwrist 26.73824253394333
rhand -34.762494062028125 -57.40252614470267
rfingers 7.125020000000038
rthumb -7.923530353362516 -87.31732858347375
lclavicle 8.796805927512451E-16 -1.7508314343319995E-15
lhumerus 20.848174284322976 -12.746151191817203 45.28678210289485
lradius 69.94230788397043
lwrist -22.274943594675555
lhand -44.777368792250364 -69.74067722315476
lfingers 7.1250200000000286
lthumb -17.56870086215902 -40.54272302635677
rfemur -24.894321652668403 -2.2123049051935446 17.20822000024114
rtibia 54.048726962168494
rfoot -29.079236765306533 -16.73326219183334
rtoes -17.671820614778387
lfemur -26.682515109169362 2.405688331649639 -18.29508962071761
ltibia 54.16813751970641
lfoot -31.06195437655392 -3.529322598030722
ltoes -19.62370410936597
67
root 0 0 0 1.054867251316596 -3.6760240392598553 1.863366133750509
lowerback 11.924846958368603 0.8574827978755943 -0.05910160177025775
upperback -4.22546985366888 1.0872142587181657 -0.5572445102967825
thorax -11.299411891614985 0.4964141207742218 -0.8006640861097272
lowerneck -5.67351039719853 1.447032102046066 4.564992353628607
upperneck 18.084823158607993 2.8833572217150376 -8.31642010301995
head 6.59076068712499 1.048015834048293 -3.2207048094710102
rclavicle -9.122068262296786E-16 -3.4220125133344747E-16
rhumerus 20.157594514266812 14.706774871264503 -48.14103493561291
rradius 72.54333774383106
rwrist 26.737953234465863
rhand -34.76116222437763 -57.40057870003192
rfingers 7.125020000000038
rthumb -7.922254263030218 -87.31538727942258
lclavicle 8.840453744686644E-16 -1.7501945864898322E-15
lhumerus 20.848823170553786 -12.747380686006595 45.28567677468888
lradius 69.94319334955254
lwrist -22.275096105499728
lhand -44.77681536989232 -69.73707286352156
lfingers 7.1250200000000286
lthumb -17.568162955219204 -40.53907227482131
rfemur -24.89431141873151 -2.2123207456149063 17.20831437135443
rtibia 54.04876624870293
rfoot -29.079210329768994 -16.733156993833727
rtoes -17.671784121668104
lfemur -26.681451996291216 2.4057098535888723 -18.294998695113208
ltibia 54.1684874623472
lfoot -31.06145028981439 -3.5295536971851353
ltoes -19.625023096719847
68
root 0 0 0 1.0542765228378514 -3.677105304479955 1.8632306837438821
lowerback 11.924828297289519 0.8573783914418444 -0.058858867055007896
upperback -4.225098068122568 1.0871235673810016 -0.5570248797128854
thorax -11.298973034975923 0.4963664622735198 -0.8005359398929972
lowerneck -5.671433953692903 1.4467385214001462 4.565223875437861
upperneck 18.08354947154874 2.883042939697531 -8.317282930793436
head 6.589997366833025 1.0478883703730837 -3.2210446354298665
rclavicle -9.083563341268963E-16 -3.4288497129741385E-16
rhumerus 20.158416495526104 14.707739793253815 -48.140685234096686
rradius 72.54389219043206
rwrist 26.73770566289606
rhand -34.75971391549258 -57.39860369065249
rfingers 7.125020000000038
rthumb -7.920865672151237 -87.31339411349725
lclavicle 8.887175844442018E-16 -1.7504825836284394E-15
lhumerus 20.849506847652666 -12.748548768870215 45.284536911839574
lradius 69.94401024522723
lwrist -22.27524284437761
lhand -44.77626504018079 -69.73369109052665
lfingers 7.1250200000000286
lthumb -17.56762943652878 -40.535630543654875
rfemur -24.89434430935085 -2.2123138378790506 17.208346111273123
rtibia 54.04882622071966
rfoot -29.07925065320203 -16.733088940193777
rtoes -17.671708579461125
lfemur -26.68046691334994 2.405839828333179 -18.294943750723462
ltibia 54.16819963235097
lfoot -31.061157477583755 -3.5293954706010453
ltoes -19.62640943853314
69
root 0 0 0 1.0546766459233803 -3.6763462490909555 1.86332525082785
lowerback 11.924896241377539 0.8574482251198128 -0.05895029266440144
upperback -4.2253019127980185 1.0871901600679172 -0.5571551253133189
thorax -11.299236080897273 0.49640027330637937 -0.8006460728264408
lowerneck -5.672485463302348 1.4468376985095124 4.565077089290659
upperneck 18.084120571408008 2.8831084389309214 -8.316817261789078
head 6.5903586765419035 1.0479166930438277 -3.2208677150601845
rclavicle -9.163874137505506E-16 -3.342237259929575E-16
rhumerus 20.15934788498633 14.707876591857918 -48.140174750804064
rradius 72.5444534048577
rwrist 26.73812551901374
rhand -34.7595724725566 -57.39856059392932
rfingers 7.125020000000038
rthumb -7.920783847804609 -87.3126919257993
lclavicle 8.843772609118371E-16 -1.7441222495281015E-15
lhumerus 20.85025614105782 -12.749556468956548 45.284378990625086
lradius 69.94470463868252
lwrist -22.27482528310349
lhand -44.7763595407939 -69.73272656833929
lfingers 7.1250200000000286
lthumb -17.56779767089175 -40.53473016343389
rfemur -24.893663686331234 -2.2118081579251236 17.207429395887722
rtibia 54.04908538244453
rfoot -29.078700701128597 -16.734075755140296
rtoes -17.672317223891827
lfemur -26.681265193931097 2.4061375695668854 -18.29493865630173
ltibia 54.16513022573176
lfoot -31.06320950052583 -3.5264664802426067
ltoes -19.628297485128503
70
root 0 0 0 1.054043059735247 -3.677539266136668 1.8631844602245007
lowerback 11.924805484708603 0.8573392208182438 -0.058762841294523055
upperback -4.224950297639948 1.087089805466045 -0.5569432564453951
thorax -11.298789691224336 0.49634894137983027 -0.8004898295965963
lowerneck -5.67064683836723 1.446633993243134 4.565339268782584
upperneck 18.08307572547064 2.8829378531166547 -8.31764100537599
head 6.589711363434046 1.047845213157391 -3.221187383587128
rclavicle -9.048050294839628E-16 -3.434574013467687E-16
rhumerus 20.158939672235448 14.708361551157836 -48.14051630533613
rradius 72.5442353846309
rwrist 26.737511144437544
rhand -34.75878632873254 -57.39723239338964
rfingers 7.125020000000038
rthumb -7.919968182555263 -87.312003903434
lclavicle 8.933378768975434E-16 -1.7505885664492919E-15
lhumerus 20.85009218396091 -12.749513532068157 45.283706807194974
lradius 69.94461452663107
lwrist -22.275262980263147
lhand -44.77584715007429 -69.73114154602858
lfingers 7.1250200000000286
lthumb -17.567214999328947 -40.533024868742075
rfemur -24.894386369316443 -2.2122802699584807 17.208255816404424
rtibia 54.04868278445193
rfoot -29.079437550177758 -16.73308435688031
rtoes -17.671987040575328
lfemur -26.679203730079436 2.4057911145999578 -18.29490030337736
ltibia 54.16628607886744
lfoot -31.061749470707277 -3.528740138521278
ltoes -19.62878362673044
